# xmcd
#
# Track frame offsets: 
#        150
#        17426
#        35293
#        53322
#        70416
#        85467
#        107513
#        124734
#
# Disc length: 1861 seconds
#
# Revision: 0
# Processed by: cddbd v1.5.2PL0 Copyright (c) Steve Scherf et al.
# Submitted via: ExactAudioCopyFreeDBPlugin 1.0
#
DISCID=59074308
DTITLE=Krista Marie - Bring It On
DYEAR=2007
DGENRE=Country
TTITLE0=Bring It On
TTITLE1=Grease n' Gasoline
TTITLE2=Live 4 the Danger
TTITLE3=Go
TTITLE4=Hurry Up Sundown
TTITLE5=Hold Me
TTITLE6=Tragic
TTITLE7=Ride It Like I Stole It
EXTD=
EXTT0=
EXTT1=
EXTT2=
EXTT3=
EXTT4=
EXTT5=
EXTT6=
EXTT7=
PLAYORDER=
